<?xml version="1.0" standalone="no"?>
<!DOCTYPE svg PUBLIC "-//W3C//DTD SVG 20010904//EN"
 "http://www.w3.org/TR/2001/REC-SVG-20010904/DTD/svg10.dtd">
<svg version="1.0" xmlns="http://www.w3.org/2000/svg"
 width="150.000000pt" height="150.000000pt" viewBox="0 0 150.000000 150.000000"
 preserveAspectRatio="xMidYMid meet">

<g transform="translate(0.000000,150.000000) scale(0.100000,-0.100000)"
fill="#fff" stroke="none">
<path d="M0 750 l0 -750 750 0 750 0 0 750 0 750 -750 0 -750 0 0 -750z m740
480 c12 -8 11 -10 -7 -10 -25 0 -30 -14 -11 -26 7 -4 8 -3 4 4 -4 7 -1 12 9
12 23 0 13 -24 -12 -28 -24 -4 -38 24 -22 44 13 16 19 17 39 4z m52 -25 c-2
-14 -6 -25 -8 -25 -2 0 -4 11 -4 25 0 14 4 25 9 25 4 0 6 -11 3 -25z m68 15
c0 -5 -5 -10 -11 -10 -5 0 -8 -4 -5 -9 3 -5 -1 -14 -9 -21 -12 -10 -15 -10
-15 3 0 26 12 47 26 47 8 0 14 -4 14 -10z m-238 -27 c19 -17 25 -39 8 -28 -6
4 -17 1 -25 -5 -13 -11 -15 -7 -15 19 0 35 6 38 32 14z m308 7 c0 -5 -4 -10
-10 -10 -5 0 -10 -6 -10 -14 0 -8 -4 -17 -10 -21 -5 -3 -8 7 -7 25 1 21 7 30
20 30 9 0 17 -4 17 -10z m-370 -57 c0 -11 -5 -11 -20 -3 -16 9 -19 8 -14 -7 5
-16 4 -16 -10 1 -22 27 -20 39 4 31 16 -5 19 -3 14 12 -5 16 -4 16 10 -1 9
-11 16 -26 16 -33z m470 -2 c0 -4 -6 -16 -14 -26 -12 -16 -16 -17 -30 -6 -14
12 -14 15 1 37 12 19 19 22 29 13 8 -6 14 -15 14 -18z m-550 -16 c17 -20 5
-45 -20 -45 -11 0 -23 7 -26 15 -6 15 11 45 26 45 4 0 13 -7 20 -15z m609 -29
c9 -11 8 -17 -4 -30 -19 -18 -45 -11 -45 13 0 32 28 42 49 17z m-664 -36 c10
-11 14 -20 8 -20 -5 0 -18 9 -28 20 -10 11 -14 20 -8 20 5 0 18 -9 28 -20z
m-25 -43 c5 2 7 -4 4 -12 -8 -19 -23 -19 -30 0 -4 8 -10 12 -15 9 -11 -6 -11
-1 -2 22 6 16 7 15 20 -2 8 -10 18 -18 23 -17z m731 -7 c-14 -14 -17 -14 -28
0 -9 12 -9 16 3 18 8 2 14 8 14 13 0 5 6 4 13 -2 11 -11 10 -16 -2 -29z m-265
-8 c62 -32 97 -65 129 -124 26 -45 30 -64 30 -128 0 -64 -4 -83 -30 -128 -55
-100 -133 -147 -245 -147 -111 0 -191 48 -244 144 -83 153 -10 334 161 397 51
19 148 12 199 -14z m-503 -40 c4 8 6 7 6 -4 1 -23 -18 -33 -25 -13 -4 9 -13
14 -20 11 -16 -6 -17 -4 -7 20 6 16 8 15 24 -5 12 -14 19 -17 22 -9z m820 14
c4 -11 -29 -36 -48 -36 -13 0 -3 30 13 39 23 14 29 13 35 -3z m-859 -62 c21
-8 21 -43 0 -51 -8 -3 -23 1 -31 10 -13 13 -14 19 -3 31 14 18 13 18 34 10z
m886 -11 c0 -15 -2 -16 -10 -3 -8 13 -10 12 -10 -2 0 -10 -7 -18 -15 -18 -8 0
-15 8 -15 18 0 14 2 15 10 2 8 -13 10 -12 10 3 0 9 7 17 15 17 8 0 15 -8 15
-17z m0 -69 c0 -8 -4 -12 -10 -9 -5 3 -10 10 -10 16 0 5 5 9 10 9 6 0 10 -7
10 -16z m-893 -24 c1 -11 -4 -20 -10 -20 -7 0 -6 -4 3 -10 11 -7 7 -10 -17
-10 -18 0 -33 5 -33 10 0 6 7 10 15 10 8 0 15 5 15 10 0 6 -4 10 -10 10 -5 0
-10 5 -10 10 0 6 10 10 23 10 16 0 23 -6 24 -20z m922 -47 c0 -12 -2 -13 -6
-5 -4 10 -8 10 -19 1 -11 -9 -14 -8 -14 2 0 11 -2 11 -10 -1 -8 -13 -10 -12
-10 3 0 12 8 17 30 17 22 0 30 -5 29 -17z m-944 -38 c6 0 14 4 18 10 5 6 7 2
5 -10 -4 -27 -51 -28 -56 -1 -3 13 0 16 10 10 7 -5 18 -9 23 -9z m940 -16 c4
-6 -3 -13 -14 -16 -20 -5 -20 -6 -4 -18 25 -19 10 -29 -24 -17 -15 6 -23 11
-17 11 6 1 10 12 9 26 -3 20 1 25 20 25 13 0 27 -5 30 -11z m-925 -55 c0 -8
-4 -12 -10 -9 -5 3 -10 10 -10 16 0 5 5 9 10 9 6 0 10 -7 10 -16z m895 -54 c0
-29 -32 -41 -41 -16 -9 24 4 48 23 44 12 -2 18 -12 18 -28z m-852 -15 c4 -8 2
-17 -3 -20 -4 -3 -11 1 -13 7 -3 8 -6 6 -6 -4 -1 -10 -8 -18 -16 -18 -8 0 -15
8 -15 18 0 13 2 14 9 4 6 -10 10 -9 14 7 6 24 22 28 30 6z m823 -48 c14 5 15
3 4 -17 -12 -22 -13 -23 -26 -6 -7 10 -17 15 -23 11 -15 -9 -14 8 1 23 9 9 14
9 20 -3 5 -8 15 -12 24 -8z m-792 -12 c3 -9 -3 -19 -15 -25 -21 -12 -39 -6
-39 13 0 8 3 8 9 -1 6 -10 10 -9 14 7 6 24 22 28 31 6z m736 -41 c0 -10 6 -14
15 -10 20 7 19 -8 -1 -24 -13 -11 -16 -10 -20 8 -4 14 -11 19 -22 14 -15 -5
-15 -4 -3 11 17 21 31 22 31 1z m-699 -24 c5 0 1 -8 -8 -18 -16 -15 -20 -16
-29 -3 -8 10 -7 18 5 30 12 12 17 13 19 4 2 -7 8 -13 13 -13z m674 -48 c-6 -7
-35 18 -35 31 0 5 9 2 20 -8 11 -10 18 -20 15 -23z m-612 -6 c8 -20 -8 -38
-29 -34 -22 4 -31 37 -13 48 15 10 36 3 42 -14z m572 -21 c0 -22 -31 -33 -47
-17 -17 17 -1 44 24 40 15 -2 23 -10 23 -23z m-508 -20 c2 -6 -3 -19 -11 -30
-12 -16 -16 -17 -30 -6 -12 10 -13 18 -5 33 11 20 40 21 46 3z m443 -32 c0
-11 -5 -11 -20 -3 -16 9 -19 8 -14 -7 5 -16 4 -16 -10 1 -22 27 -20 39 4 31
16 -5 19 -3 14 12 -5 16 -4 16 10 -1 9 -11 16 -26 16 -33z m-393 -13 c-2 -29
-20 -40 -32 -20 -3 6 -2 10 3 10 5 0 12 9 15 20 8 30 16 24 14 -10z m305 -10
c-5 -36 -8 -37 -32 -7 -18 22 -18 22 3 29 12 3 25 6 28 7 3 1 4 -12 1 -29z
m-236 -15 c-6 -24 -36 -36 -36 -15 0 6 5 10 12 10 6 0 9 3 5 6 -6 6 15 35 22
28 2 -1 1 -15 -3 -29z m44 0 c0 -14 -4 -25 -9 -25 -4 0 -6 11 -3 25 2 14 6 25
8 25 2 0 4 -11 4 -25z m80 10 c10 -12 10 -18 0 -30 -17 -21 -42 -15 -46 9 -5
37 22 49 46 21z"/>
<path d="M450 1105 c0 -9 5 -15 11 -13 6 2 11 8 11 13 0 5 -5 11 -11 13 -6 2
-11 -4 -11 -13z"/>
<path d="M1057 1093 c-12 -11 -8 -23 8 -23 8 0 15 7 15 15 0 16 -12 20 -23 8z"/>
<path d="M635 986 c-92 -42 -145 -129 -145 -236 0 -152 108 -260 260 -260 152
0 260 108 260 260 0 153 -107 260 -260 260 -47 0 -79 -7 -115 -24z m159 -92
c10 -4 16 -18 16 -39 0 -42 -34 -76 -105 -105 -63 -26 -78 -54 -51 -95 33 -51
110 -23 155 57 22 38 32 48 36 36 13 -34 -52 -116 -109 -138 -36 -13 -78 -5
-102 21 -26 28 -21 99 11 164 41 84 95 120 149 99z"/>
<path d="M727 860 c-31 -24 -71 -90 -55 -90 27 0 96 42 108 66 12 22 12 27 0
34 -21 13 -24 13 -53 -10z"/>
<path d="M302 889 c2 -6 8 -10 13 -10 5 0 11 4 13 10 2 6 -4 11 -13 11 -9 0
-15 -5 -13 -11z"/>
<path d="M1170 600 c0 -5 7 -10 15 -10 8 0 15 5 15 10 0 6 -7 10 -15 10 -8 0
-15 -4 -15 -10z"/>
<path d="M445 401 c-6 -11 9 -23 19 -14 9 9 7 23 -3 23 -6 0 -12 -4 -16 -9z"/>
<path d="M1020 385 c0 -9 5 -15 11 -13 6 2 11 8 11 13 0 5 -5 11 -11 13 -6 2
-11 -4 -11 -13z"/>
<path d="M763 295 c0 -8 4 -15 9 -15 4 0 8 4 8 9 0 6 -4 12 -8 15 -5 3 -9 -1
-9 -9z"/>
</g>
</svg>
